<?xml version="1.0" encoding="UTF-8"?>
<svg id="Layer_1" data-name="Layer 1" xmlns="http://www.w3.org/2000/svg" viewBox="0 0 136.56 319.67">
  <defs>
    <style>
      .cls-1 {
        fill: #231f20;
        stroke: #231f20;
        stroke-miterlimit: 10;
      }

      .cls-2 {
        fill: #fff;
        font-family: MyriadPro-Regular, 'Myriad Pro';
        font-size: 71px;
      }
    </style>
  </defs>
  <path class="cls-1" d="M44.94,179.39v-40.09m46.67,40.09v101.11c0,3.26,.85,5.74,2.56,7.44,1.7,1.7,3.74,2.93,6.11,3.67l35.78,10.89v16.67H.5v-16.67l36-10.89c2.67-.89,4.74-2.15,6.22-3.78,1.48-1.63,2.22-4.07,2.22-7.33v-101.11m46.67-39.73v39.73m-46.67-40.09V38.72c0-3.11-.82-5.48-2.44-7.11-1.63-1.63-3.63-2.81-6-3.56L.5,16.72V.5H136.06V16.72l-35.78,11.33c-2.37,.74-4.41,1.97-6.11,3.67-1.7,1.7-2.56,4.04-2.56,7v100.94m0,39.73H44.94v-40.09h46.67v40.09Z"/>
  <text class="cls-2" transform="translate(50.64 93.71)"><tspan x="0" y="0">4</tspan></text>
  <text class="cls-2" transform="translate(50.64 260.14)"><tspan x="0" y="0">4</tspan></text>
  <text class="cls-2" transform="translate(50.64 174.12)"><tspan x="0" y="0">0</tspan></text>
</svg>