<?xml version="1.0" encoding="UTF-8"?>
<svg id="Layer_1" data-name="Layer 1" xmlns="http://www.w3.org/2000/svg" viewBox="0 0 652.75 543.58">
  <defs>
    <style>
      .cls-1 {
        letter-spacing: .18em;
      }

      .cls-2 {
        font-size: 66px;
        letter-spacing: .19em;
      }

      .cls-2, .cls-3, .cls-4 {
        font-family: MyriadPro-Regular, 'Myriad Pro';
        stroke: #231f20;
        stroke-miterlimit: 10;
      }

      .cls-2, .cls-3, .cls-4, .cls-5 {
        fill: #231f20;
      }

      .cls-6, .cls-4 {
        letter-spacing: .19em;
      }

      .cls-3, .cls-4 {
        font-size: 71px;
      }

      .cls-7 {
        letter-spacing: 3.68em;
      }

      .cls-8 {
        letter-spacing: .19em;
      }
    </style>
  </defs>
  <path class="cls-5" d="M282.91,326.11v-40.09m46.67,40.09v101.11c0,3.26,.85,5.74,2.56,7.44,1.7,1.7,3.74,2.93,6.11,3.67l35.78,10.89v16.67H238.46v-16.67l36-10.89c2.67-.89,4.74-2.15,6.22-3.78,1.48-1.63,2.22-4.07,2.22-7.33v-101.11m46.67-39.73v39.73m-46.67-40.09v-100.58c0-3.11-.82-5.48-2.44-7.11-1.63-1.63-3.63-2.81-6-3.56l-36-11.33v-16.22h135.56v16.22l-35.78,11.33c-2.37,.74-4.41,1.97-6.11,3.67-1.7,1.7-2.56,4.04-2.56,7v100.94"/>
  <text class="cls-2" transform="translate(241.9 328.14)"><tspan x="0" y="0">404</tspan></text>
  <text class="cls-4" transform="translate(196.76 124.51)"><tspan x="0" y="0">oops!</tspan></text>
  <text class="cls-3" transform="translate(.5 426.87)"><tspan class="cls-6" x="0" y="0">page</tspan><tspan class="cls-7" x="204.12" y="0"> </tspan><tspan class="cls-8" x="480.57" y="0">not </tspan><tspan class="cls-1" x="188.99" y="85.2">f</tspan><tspan class="cls-6" x="222.36" y="85.2">ound</tspan></text>
</svg>