<svg xmlns="http://www.w3.org/2000/svg" viewBox="0 0 841.9 595.3"><g fill="#ffffffae"><path d="M119.81,178.89v-40.09m46.67,40.09v101.11c0,3.26,.85,5.74,2.56,7.44,1.7,1.7,3.74,2.93,6.11,3.67l35.78,10.89v16.67H75.37v-16.67l36-10.89c2.67-.89,4.74-2.15,6.22-3.78,1.48-1.63,2.22-4.07,2.22-7.33v-101.11m46.67-39.73v39.73m-46.67-40.09V38.22c0-3.11-.82-5.48-2.44-7.11-1.63-1.63-3.63-2.81-6-3.56l-36-11.33V0H210.93V16.22l-35.78,11.33c-2.37,.74-4.41,1.97-6.11,3.67-1.7,1.7-2.56,4.04-2.56,7v100.94"/><text class="cls-2" transform="translate(16.81 173.11)"><tspan x="90" y="-10">IDEMNIFY</tspan></text><path d="M520.5 78.1z"/></g></svg>